<svg xmlns="http://www.w3.org/2000/svg" viewBox="0 0 100 100" fill="none">
  <rect x="10" y="8" width="80" height="62" rx="6" ry="6" stroke="white" stroke-width="4.5" fill="none"/>
  <rect x="10" y="8" width="10" height="10" rx="2" fill="white" opacity="0.9"/>
  <rect x="80" y="8" width="10" height="10" rx="2" fill="white" opacity="0.9"/>
  <rect x="10" y="60" width="10" height="10" rx="2" fill="white" opacity="0.9"/>
  <rect x="80" y="60" width="10" height="10" rx="2" fill="white" opacity="0.9"/>
  <rect x="28" y="30" width="44" height="5" rx="2.5" fill="white"/>
  <rect x="22" y="42" width="56" height="5" rx="2.5" fill="white"/>
  <circle cx="50" cy="76" r="14" stroke="white" stroke-width="4" fill="none"/>
  <circle cx="50" cy="76" r="8" stroke="white" stroke-width="2.5" fill="none"/>
  <polygon points="50,69 51.8,74.5 57.5,74.5 52.8,77.8 54.6,83.3 50,80 45.4,83.3 47.2,77.8 42.5,74.5 48.2,74.5" fill="white"/>
  <polygon points="43,88 47,78 50,80 47,90" fill="white"/>
  <polygon points="57,88 53,78 50,80 53,90" fill="white"/>
</svg>
